<?xml version="1.0" encoding="UTF-8" standalone="no"?>
<svg
   height="17.058126"
   viewBox="0 0 17.048124 17.058126"
   width="17.048124"
   version="1.1"
   id="svg2"
   xmlns="http://www.w3.org/2000/svg">
  <defs
     id="defs2" />
  <path
     d="M -3.1817108,-2.9765824 H 20.818289 V 21.023418 H -3.1817108 Z"
     fill="none"
     id="path1" />
  <path
     d="m 12.500625,11.000626 h -0.79 l -0.28,-0.27 c 1.2,-1.4000004 1.82,-3.3100004 1.48,-5.3400004 -0.47,-2.78 -2.79,-4.99999997 -5.5899998,-5.33999997 -4.2299998,-0.52 -7.78999978,3.03999997 -7.26999978,7.26999997 0.34,2.8000004 2.55999998,5.1200004 5.33999998,5.5900004 2.0299998,0.34 3.9399998,-0.28 5.3399996,-1.48 l 0.27,0.28 v 0.79 l 4.25,4.25 c 0.41,0.41 1.08,0.41 1.49,0 0.41,-0.41 0.41,-1.08 0,-1.49 z m -5.9999996,0 c -2.49,0 -4.5,-2.0100004 -4.5,-4.5000004 0,-2.49 2.01,-4.5 4.5,-4.5 2.4899998,0 4.4999996,2.01 4.4999996,4.5 0,2.49 -2.0099998,4.5000004 -4.4999996,4.5000004 z"
     id="path2" />
  <rect
     style="fill:none;stroke-width:0.0377953;stroke-opacity:0.994863"
     id="rect2"
     width="17.481482"
     height="17.481482"
     x="-0.99367648"
     y="-0.15037163"
     rx="8.4387465"
     ry="8.4387474" />
</svg>
